<?xml version="1.0" encoding="utf-8"?>
<!-- Generator: Adobe Illustrator 22.1.0, SVG Export Plug-In . SVG Version: 6.00 Build 0)  -->
<svg version="1.1" id="Layer_1" xmlns="http://www.w3.org/2000/svg" xmlns:xlink="http://www.w3.org/1999/xlink" x="0px" y="0px"
	 viewBox="0 0 283.5 107.7" style="enable-background:new 0 0 283.5 107.7;" xml:space="preserve">
<style type="text/css">
	.st0{fill-rule:evenodd;clip-rule:evenodd;fill:#212120;}
	.st1{fill:#F1F1F2;}
	.st2{fill:#0C6342;}
	.st3{fill:#D0D2D3;}
	.st4{fill:none;stroke:#0C6342;stroke-width:2;stroke-miterlimit:10;}
	.st5{fill:#F1F1F2;stroke:#F1F1F2;stroke-width:3;stroke-miterlimit:10;}
	.st6{fill:none;stroke:#6D6E70;stroke-width:0.75;stroke-miterlimit:10;}
	.st7{fill:#009345;}
	.st8{fill:#BE1E2D;}
	.st9{fill-rule:evenodd;clip-rule:evenodd;fill:#FFFFFF;}
</style>
<rect x="-0.2" y="0" class="st0" width="283.2" height="108"/>
<g>
	<path class="st1" d="M109.2,42.6V12.9h1.7v28h11.5v1.7H109.2z"/>
</g>
<g>
	<path class="st1" d="M128.1,76.4h-1.6v-3.5c-0.3,0.4-0.6,0.8-1,1.2c-1.9,1.9-4.2,2.8-6.8,2.8c-2.7,0-4.9-0.9-6.8-2.8
		c-1.9-1.9-2.8-4.2-2.8-6.8c0-2.7,0.9-4.9,2.8-6.8c1.9-1.9,4.2-2.8,6.8-2.8c2.7,0,4.9,0.9,6.8,2.8c0.4,0.4,0.7,0.8,1,1.2V48.3h1.6
		V76.4z M126.5,68.8v-3.1c-0.3-1.5-1-2.9-2.2-4.1c-1.6-1.6-3.4-2.3-5.6-2.3s-4.1,0.8-5.6,2.3c-1.6,1.6-2.3,3.4-2.3,5.6
		c0,2.2,0.8,4.1,2.3,5.6s3.4,2.3,5.6,2.3s4.1-0.8,5.6-2.3C125.5,71.7,126.3,70.3,126.5,68.8z"/>
	<path class="st1" d="M135.7,53.5c0.3,0.3,0.5,0.7,0.5,1.1c0,0.4-0.2,0.8-0.5,1.1c-0.3,0.3-0.7,0.5-1.1,0.5s-0.8-0.2-1.1-0.5
		c-0.3-0.3-0.5-0.7-0.5-1.1c0-0.4,0.2-0.8,0.5-1.1c0.3-0.3,0.7-0.5,1.1-0.5S135.3,53.2,135.7,53.5z M135.3,59.1v17.3h-1.6V59.1
		H135.3z"/>
	<path class="st1" d="M155.2,48.3l10.6,18.3l10.5-18.3h1.8l-0.1,0.1v28h-1.6V51.1l-10.7,18.5l-10.7-18.5v25.3h-1.6v-28l-0.1-0.1
		H155.2z"/>
	<path class="st1" d="M185.7,53.5c0.3,0.3,0.5,0.7,0.5,1.1c0,0.4-0.2,0.8-0.5,1.1s-0.7,0.5-1.1,0.5s-0.8-0.2-1.1-0.5
		S183,55,183,54.6c0-0.4,0.2-0.8,0.5-1.1s0.7-0.5,1.1-0.5S185.3,53.2,185.7,53.5z M185.3,59.1v17.3h-1.6V59.1H185.3z"/>
	<path class="st1" d="M205.8,72.3l1.7,0.6c-0.3,0.4-0.6,0.8-1,1.2c-1.9,1.9-4.2,2.8-6.8,2.8c-2.7,0-4.9-0.9-6.8-2.8
		c-1.9-1.9-2.8-4.2-2.8-6.8c0-2.7,0.9-4.9,2.8-6.8c1.9-1.9,4.2-2.8,6.8-2.8c2.7,0,5,0.9,6.8,2.8c0.4,0.4,0.7,0.8,1,1.2l-1.7,0.6
		c-0.2-0.2-0.4-0.4-0.6-0.6c-1.6-1.5-3.4-2.3-5.6-2.3c-2.2,0-4.1,0.8-5.6,2.3c-1.6,1.6-2.3,3.4-2.3,5.6c0,2.2,0.8,4.1,2.3,5.6
		c1.6,1.6,3.4,2.3,5.6,2.3c2.2,0,4.1-0.8,5.6-2.3C205.4,72.7,205.6,72.5,205.8,72.3z"/>
	<path class="st1" d="M211.6,48.3h1.6V60c1.3-1.3,2.9-1.9,4.8-1.9c2,0,3.7,0.6,5,1.9c1.3,1.3,1.9,2.9,2,4.8v11.5h-1.6V65
		c0-1.5-0.5-2.7-1.6-3.8c-1.1-1-2.3-1.6-3.8-1.6c-1.5,0-2.7,0.5-3.8,1.5c-0.5,0.5-0.8,1-1.1,1.5v13.7h-1.6V48.3z"/>
	<path class="st1" d="M233.5,73.2c1.5,1.4,3.3,2,5.3,2c2.2,0,4.1-0.8,5.6-2.3c0.2-0.2,0.4-0.4,0.6-0.6l1.7,0.6
		c-0.3,0.4-0.6,0.8-1,1.2c-1.9,1.9-4.2,2.8-6.8,2.8c-2.7,0-4.9-0.9-6.8-2.8c-1.9-1.9-2.8-4.2-2.8-6.8c0-2.7,0.9-4.9,2.8-6.8
		c1.9-1.9,4.2-2.8,6.8-2.8c2.3,0,4.3,0.7,6,2.1c0.3,0.2,0.6,0.5,0.8,0.8c0.1,0.1,0.2,0.2,0.3,0.3l-1.2,1.2L233.5,73.2z M243.6,60.9
		c-1.4-1.1-3-1.6-4.8-1.6c-2.2,0-4.1,0.8-5.6,2.3c-1.6,1.6-2.3,3.4-2.3,5.6c0,1.8,0.5,3.4,1.6,4.8L243.6,60.9z"/>
	<path class="st1" d="M252.5,48.3v28.1h-1.6V48.3H252.5z"/>
</g>
<path class="st2" d="M92.4,99.6H23.2c-5.9,0-10.7-4.8-10.7-10.7V19.7C12.5,13.8,17.3,9,23.2,9h69.2c5.9,0,10.7,4.8,10.7,10.7v69.2
	C103.2,94.8,98.4,99.6,92.4,99.6z"/>
<g>
	<path class="st3" d="M109.2,88.4h0.6v0.9c0.1-0.1,0.2-0.3,0.4-0.4c0.7-0.7,1.5-1,2.5-1c1,0,1.8,0.3,2.5,1c0.7,0.7,1,1.5,1,2.5
		c0,1-0.3,1.8-1,2.5c-0.7,0.7-1.5,1-2.5,1c-1,0-1.8-0.3-2.5-1c-0.1-0.1-0.3-0.3-0.4-0.4v3.7h-0.6V88.4z M109.8,90.7V92
		c0.1,0.6,0.4,1.1,0.8,1.5c0.6,0.6,1.3,0.9,2.1,0.9c0.8,0,1.5-0.3,2.1-0.9c0.6-0.6,0.9-1.3,0.9-2.1c0-0.8-0.3-1.5-0.9-2.1
		s-1.3-0.9-2.1-0.9c-0.8,0-1.5,0.3-2.1,0.9C110.2,89.7,109.9,90.2,109.8,90.7z"/>
	<path class="st3" d="M124.8,94.7h-0.6v-1.3c-0.1,0.2-0.2,0.3-0.4,0.4c-0.7,0.7-1.5,1-2.5,1c-1,0-1.8-0.3-2.5-1
		c-0.7-0.7-1-1.5-1-2.5c0-1,0.3-1.8,1-2.5c0.7-0.7,1.5-1,2.5-1c1,0,1.8,0.3,2.5,1c0.1,0.1,0.3,0.3,0.4,0.4v-0.9h0.6V94.7z
		 M124.2,91.9v-1.2c-0.1-0.6-0.4-1.1-0.8-1.5c-0.6-0.6-1.3-0.9-2.1-0.9s-1.5,0.3-2.1,0.9c-0.6,0.6-0.9,1.3-0.9,2.1
		c0,0.8,0.3,1.5,0.9,2.1c0.6,0.6,1.3,0.9,2.1,0.9s1.5-0.3,2.1-0.9C123.8,93,124.1,92.5,124.2,91.9z"/>
	<path class="st3" d="M128.5,91.5c-0.5-0.3-0.8-0.5-1-0.7c-0.3-0.3-0.4-0.7-0.4-1.1c0-0.4,0.1-0.8,0.4-1.1c0.3-0.3,0.7-0.5,1.1-0.5
		c0.4,0,0.8,0.1,1.1,0.4c0.3,0.3,0.4,0.6,0.4,0.9v0l-0.5,0.2c0-0.3-0.1-0.6-0.3-0.7c-0.2-0.2-0.4-0.2-0.6-0.2
		c-0.3,0-0.5,0.1-0.7,0.3c-0.2,0.2-0.3,0.4-0.3,0.7c0,0.3,0.1,0.5,0.3,0.7c0.1,0.1,0.3,0.3,0.7,0.5c0.6,0.3,0.9,0.6,1.2,0.8
		c0.4,0.4,0.6,0.8,0.6,1.3c0,0.5-0.2,1-0.6,1.3c-0.4,0.4-0.8,0.6-1.3,0.6s-1-0.2-1.3-0.6c-0.4-0.4-0.6-0.8-0.6-1.2l0.6-0.1
		c0,0.4,0.1,0.7,0.4,1s0.6,0.4,0.9,0.4s0.7-0.1,0.9-0.4s0.4-0.6,0.4-0.9c0-0.4-0.1-0.7-0.4-0.9C129.2,91.9,128.9,91.7,128.5,91.5z"
		/>
	<path class="st3" d="M133,88.4v-2.7h0.6v2.7h1.3v0.6h-1.3v5.8H133v-5.8h-1.3v-0.6H133z"/>
	<path class="st3" d="M143.3,94.7h-0.6v-1.3c-0.1,0.2-0.2,0.3-0.4,0.4c-0.7,0.7-1.5,1-2.5,1c-1,0-1.8-0.3-2.5-1
		c-0.7-0.7-1-1.5-1-2.5c0-1,0.3-1.8,1-2.5c0.7-0.7,1.5-1,2.5-1c1,0,1.8,0.3,2.5,1c0.1,0.1,0.3,0.3,0.4,0.4v-0.9h0.6V94.7z
		 M142.7,91.9v-1.2c-0.1-0.6-0.4-1.1-0.8-1.5c-0.6-0.6-1.3-0.9-2.1-0.9s-1.5,0.3-2.1,0.9c-0.6,0.6-0.9,1.3-0.9,2.1
		c0,0.8,0.3,1.5,0.9,2.1c0.6,0.6,1.3,0.9,2.1,0.9s1.5-0.3,2.1-0.9C142.3,93,142.6,92.5,142.7,91.9z"/>
	<path class="st3" d="M159.9,93.2l0.6,0.2c-0.1,0.2-0.2,0.3-0.4,0.4c-0.7,0.7-1.5,1-2.5,1c-1,0-1.8-0.3-2.5-1c-0.7-0.7-1-1.5-1-2.5
		c0-1,0.3-1.8,1-2.5c0.7-0.7,1.5-1,2.5-1c1,0,1.8,0.3,2.5,1c0.1,0.1,0.3,0.3,0.4,0.4l-0.6,0.2c-0.1-0.1-0.1-0.2-0.2-0.2
		c-0.6-0.6-1.3-0.9-2.1-0.9c-0.8,0-1.5,0.3-2.1,0.9s-0.9,1.3-0.9,2.1c0,0.8,0.3,1.5,0.9,2.1c0.6,0.6,1.3,0.9,2.1,0.9
		c0.8,0,1.5-0.3,2.1-0.9C159.8,93.4,159.9,93.3,159.9,93.2z"/>
	<path class="st3" d="M169,94.7h-0.6v-1.3c-0.1,0.2-0.2,0.3-0.4,0.4c-0.7,0.7-1.5,1-2.5,1c-1,0-1.8-0.3-2.5-1c-0.7-0.7-1-1.5-1-2.5
		c0-1,0.3-1.8,1-2.5c0.7-0.7,1.5-1,2.5-1c1,0,1.8,0.3,2.5,1c0.1,0.1,0.3,0.3,0.4,0.4v-0.9h0.6V94.7z M168.4,91.9v-1.2
		c-0.1-0.6-0.4-1.1-0.8-1.5c-0.6-0.6-1.3-0.9-2.1-0.9c-0.8,0-1.5,0.3-2.1,0.9c-0.6,0.6-0.9,1.3-0.9,2.1c0,0.8,0.3,1.5,0.9,2.1
		c0.6,0.6,1.3,0.9,2.1,0.9c0.8,0,1.5-0.3,2.1-0.9C168,93,168.3,92.5,168.4,91.9z"/>
	<path class="st3" d="M171.8,88.9v5.8h-0.6v-5.8h-0.7v-0.6h0.7v-1.7c0-0.5,0.2-0.9,0.6-1.2c0.4-0.3,0.8-0.5,1.2-0.5
		c0.2,0,0.5,0,0.8,0.1l-0.2,0.5c-0.2-0.1-0.4-0.1-0.5-0.1c-0.3,0-0.6,0.1-0.9,0.4c-0.2,0.2-0.4,0.5-0.4,0.9v1.7h1.3v0.6H171.8z"/>
	<path class="st3" d="M175.1,88.9v5.8h-0.6v-5.8h-0.7v-0.6h0.7v-1.7c0-0.5,0.2-0.9,0.6-1.2c0.4-0.3,0.8-0.5,1.2-0.5
		c0.2,0,0.5,0,0.8,0.1l-0.2,0.5c-0.2-0.1-0.4-0.1-0.5-0.1c-0.3,0-0.6,0.1-0.9,0.4c-0.2,0.2-0.4,0.5-0.4,0.9v1.7h1.3v0.6H175.1z"/>
	<path class="st3" d="M178.9,93.6c0.5,0.5,1.2,0.8,2,0.8c0.8,0,1.5-0.3,2.1-0.9c0.1-0.1,0.1-0.1,0.2-0.2l0.6,0.2
		c-0.1,0.2-0.2,0.3-0.4,0.4c-0.7,0.7-1.5,1-2.5,1c-1,0-1.8-0.3-2.5-1c-0.7-0.7-1-1.5-1-2.5c0-1,0.3-1.8,1-2.5c0.7-0.7,1.5-1,2.5-1
		c0.8,0,1.6,0.3,2.2,0.8c0.1,0.1,0.2,0.2,0.3,0.3c0,0,0.1,0.1,0.1,0.1l-0.4,0.4L178.9,93.6z M182.6,89c-0.5-0.4-1.1-0.6-1.8-0.6
		c-0.8,0-1.5,0.3-2.1,0.9s-0.9,1.3-0.9,2.1c0,0.7,0.2,1.3,0.6,1.8L182.6,89z M180.2,85.7l1.1,1.2h-0.5l-1.6-1.2H180.2z"/>
	<path class="st3" d="M201.4,94.7h-0.6v-1.3c-0.1,0.2-0.2,0.3-0.4,0.4c-0.7,0.7-1.5,1-2.5,1c-1,0-1.8-0.3-2.5-1
		c-0.7-0.7-1-1.5-1-2.5c0-1,0.3-1.8,1-2.5c0.7-0.7,1.5-1,2.5-1c1,0,1.8,0.3,2.5,1c0.1,0.1,0.3,0.3,0.4,0.4v-4.9h0.6V94.7z
		 M200.8,91.9v-1.2c-0.1-0.6-0.4-1.1-0.8-1.5c-0.6-0.6-1.3-0.9-2.1-0.9c-0.8,0-1.5,0.3-2.1,0.9c-0.6,0.6-0.9,1.3-0.9,2.1
		c0,0.8,0.3,1.5,0.9,2.1c0.6,0.6,1.3,0.9,2.1,0.9c0.8,0,1.5-0.3,2.1-0.9C200.4,93,200.7,92.5,200.8,91.9z"/>
	<path class="st3" d="M206.5,87.8c1,0,1.8,0.3,2.5,1c0.7,0.7,1,1.5,1,2.5c0,1-0.3,1.8-1,2.5c-0.7,0.7-1.5,1-2.5,1
		c-1,0-1.8-0.3-2.5-1c-0.7-0.7-1-1.5-1-2.5c0-1,0.3-1.8,1-2.5C204.7,88.1,205.6,87.8,206.5,87.8z M204.5,89.3
		c-0.6,0.6-0.9,1.3-0.9,2.1c0,0.8,0.3,1.5,0.9,2.1c0.6,0.6,1.3,0.9,2.1,0.9c0.8,0,1.5-0.3,2.1-0.9c0.6-0.6,0.9-1.3,0.9-2.1
		c0-0.8-0.3-1.5-0.9-2.1c-0.6-0.6-1.3-0.9-2.1-0.9C205.7,88.4,205,88.7,204.5,89.3z"/>
	<path class="st3" d="M212.3,84.3v10.4h-0.6V84.3H212.3z"/>
	<path class="st3" d="M219.7,93.2l0.6,0.2c-0.1,0.2-0.2,0.3-0.4,0.4c-0.7,0.7-1.5,1-2.5,1c-1,0-1.8-0.3-2.5-1c-0.7-0.7-1-1.5-1-2.5
		c0-1,0.3-1.8,1-2.5c0.7-0.7,1.5-1,2.5-1c1,0,1.8,0.3,2.5,1c0.1,0.1,0.3,0.3,0.4,0.4l-0.6,0.2c-0.1-0.1-0.1-0.2-0.2-0.2
		c-0.6-0.6-1.3-0.9-2.1-0.9c-0.8,0-1.5,0.3-2.1,0.9s-0.9,1.3-0.9,2.1c0,0.8,0.3,1.5,0.9,2.1c0.6,0.6,1.3,0.9,2.1,0.9
		c0.8,0,1.5-0.3,2.1-0.9C219.5,93.4,219.6,93.3,219.7,93.2z"/>
	<path class="st3" d="M223.1,93.6c0.5,0.5,1.2,0.8,2,0.8c0.8,0,1.5-0.3,2.1-0.9c0.1-0.1,0.1-0.1,0.2-0.2l0.6,0.2
		c-0.1,0.2-0.2,0.3-0.4,0.4c-0.7,0.7-1.5,1-2.5,1c-1,0-1.8-0.3-2.5-1c-0.7-0.7-1-1.5-1-2.5c0-1,0.3-1.8,1-2.5c0.7-0.7,1.5-1,2.5-1
		c0.8,0,1.6,0.3,2.2,0.8c0.1,0.1,0.2,0.2,0.3,0.3c0,0,0.1,0.1,0.1,0.1l-0.4,0.4L223.1,93.6z M226.8,89c-0.5-0.4-1.1-0.6-1.8-0.6
		c-0.8,0-1.5,0.3-2.1,0.9s-0.9,1.3-0.9,2.1c0,0.7,0.2,1.3,0.6,1.8L226.8,89z"/>
</g>
<path class="st4" d="M261.8,99.7H22c-5.1,0-9.2-4.1-9.2-9.2V18.2c0-5.1,4.1-9.2,9.2-9.2h239.8c5.1,0,9.2,4.1,9.2,9.2v72.3
	C271,95.5,266.9,99.7,261.8,99.7z"/>
<rect x="18.5" y="8.9" class="st2" width="84.6" height="91"/>
<line class="st5" x1="127.5" y1="11.5" x2="127.5" y2="18.5"/>
<g>
	<path class="st1" d="M151.7,41.7h-1.7V38c-0.3,0.4-0.7,0.8-1.1,1.2c-2,2-4.4,3-7.2,3c-2.8,0-5.2-1-7.2-3c-2-2-3-4.4-3-7.2
		c0-2.8,1-5.2,3-7.2s4.4-3,7.2-3c2.8,0,5.2,1,7.2,3c0.4,0.4,0.7,0.8,1.1,1.2v-2.6h1.7V41.7z M150.1,33.7v-3.3
		c-0.3-1.6-1.1-3.1-2.3-4.3c-1.6-1.6-3.6-2.5-5.9-2.5c-2.3,0-4.3,0.8-5.9,2.5c-1.6,1.6-2.5,3.6-2.5,5.9c0,2.3,0.8,4.3,2.5,5.9
		c1.6,1.6,3.6,2.5,5.9,2.5c2.3,0,4.3-0.8,5.9-2.5C149,36.7,149.8,35.3,150.1,33.7z"/>
	<path class="st1" d="M159,27.5v14.1h-1.7V23.5h1.7v1.2c1.5-1.5,3.3-2.3,5.3-2.3c2.1,0,3.9,0.7,5.2,2c1.3,1.3,2,3,2.1,5.1v12.2h-1.7
		v-12c0-1.5-0.6-2.9-1.7-4s-2.4-1.6-4-1.6c-1.5,0-2.9,0.5-4,1.6C159.7,26.3,159.2,26.9,159,27.5z"/>
	<path class="st1" d="M195.1,38c-0.3,0.4-0.6,0.8-1,1.1c-2,2-4.4,3-7.2,3c-2.8,0-5.2-1-7.2-3c-2-2-3-4.4-3-7.2c0-2.8,1-5.2,3-7.2
		s4.4-3,7.2-3c2.8,0,5.2,1,7.2,3c0.4,0.4,0.7,0.8,1.1,1.2v-2.6h1.7v14.1c0,2.7-1,5.1-2.9,7c-2,2-4.4,3-7.2,3c-2.8,0-5.2-1-7.2-3
		c-0.4-0.4-0.8-0.8-1.1-1.3l1.8-0.6c0.2,0.2,0.4,0.4,0.6,0.6c1.6,1.6,3.6,2.5,5.9,2.5c2.3,0,4.3-0.8,5.9-2.5
		C194.1,41.8,194.9,40.1,195.1,38z M195.1,30.3c-0.3-1.6-1.1-3-2.3-4.2c-1.6-1.6-3.6-2.5-5.9-2.5c-2.3,0-4.3,0.8-5.9,2.5
		c-1.6,1.6-2.5,3.6-2.5,5.9c0,2.3,0.8,4.3,2.5,5.9c1.6,1.6,3.6,2.5,5.9,2.5c2.3,0,4.3-0.8,5.9-2.5c1.2-1.2,2-2.6,2.3-4.2V30.3z"/>
	<path class="st1" d="M211.5,21.8c2.8,0,5.2,1,7.2,3s3,4.4,3,7.2c0,2.8-1,5.2-3,7.2c-2,2-4.4,3-7.2,3c-2.8,0-5.2-1-7.2-3
		c-2-2-3-4.4-3-7.2c0-2.8,1-5.2,3-7.2S208.7,21.8,211.5,21.8z M205.5,26.1c-1.6,1.6-2.5,3.6-2.5,5.9c0,2.3,0.8,4.3,2.5,5.9
		s3.6,2.5,5.9,2.5c2.3,0,4.3-0.8,5.9-2.5c1.6-1.6,2.5-3.6,2.5-5.9c0-2.3-0.8-4.3-2.5-5.9c-1.6-1.6-3.6-2.5-5.9-2.5
		C209.2,23.6,207.2,24.4,205.5,26.1z"/>
	<path class="st1" d="M227.8,12v29.6h-1.7V12H227.8z"/>
	<path class="st1" d="M242.4,21.8c2.8,0,5.2,1,7.2,3s3,4.4,3,7.2c0,2.8-1,5.2-3,7.2c-2,2-4.4,3-7.2,3c-2.8,0-5.2-1-7.2-3
		c-2-2-3-4.4-3-7.2c0-2.8,1-5.2,3-7.2S239.6,21.8,242.4,21.8z M236.4,26.1c-1.6,1.6-2.5,3.6-2.5,5.9c0,2.3,0.8,4.3,2.5,5.9
		s3.6,2.5,5.9,2.5c2.3,0,4.3-0.8,5.9-2.5c1.6-1.6,2.5-3.6,2.5-5.9c0-2.3-0.8-4.3-2.5-5.9c-1.6-1.6-3.6-2.5-5.9-2.5
		C240.1,23.6,238.1,24.4,236.4,26.1z"/>
</g>
<circle class="st6" cx="189" cy="91.8" r="1.7"/>
<circle class="st7" cx="149" cy="91.8" r="1.7"/>
<circle class="st8" cx="232.8" cy="91.8" r="1.7"/>
<g>
	<g>
		<path class="st9" d="M85.2,22.3C85.1,22.4,85.2,22.4,85.2,22.3L85.2,22.3L85.2,22.3z M85.1,22.4L85.1,22.4L85.1,22.4L85.1,22.4z
			 M88.9,10.6c-1.2,0-2.4,1-3.4,0.5c-1.1-0.4-0.5,1.4-1.1,1.9c-0.7,0.6-1.4,1.7-1.8,2.7c-0.4,0.9-1.5,1-2.2,1.6
			c-1.4,0.4-2.7-0.1-4.3,0.1c-1,0-1.7,0.8-2.6,1.4c-0.8-0.1-1.4,0.2-1.3,1c-0.9,0-1.2,0.3-1.4,1.2c-0.5,0.7-1.5,0.8-2.3,1.2
			c-1.4-0.2-2,1.5-2.8,2.1c-0.8,1-1.8,1.7-2.4,2.8c-0.2,0.6-1,1.1-0.9,2.1c-0.1,2.6,0.2,5.4-0.3,7.9c-0.2,0.9,0,2.1-0.4,2.8
			c-0.8-0.4-0.9,0.8-1.2,1.2c-0.1,0.7-0.8,1.3-1,2c-0.5,1-1,1.4-1.7,2.2c-0.5,0.5-0.8,1.2-1.2,1.7c-0.5,0.7,0,1.5,0.2,2.2
			c-0.9-0.1,0.5,1.2-0.6,1.2c-0.2,1.6-0.2,3.3-0.4,5c0.2,0.5,0.8,1,0.4,1.6c-0.8,0.1-1.3,1.1-2.5,1.1c-1.3,0.4-2,1.5-3.3,1.6
			c-0.6,0.5-1.1,1.1-2,1.3c-0.7,0.5-1,1.8-2.3,1.5c-1.4,0-2.3,0.8-3.6,1.3c-0.9,0.9-2.1,1.6-3.2,2.4c-0.7-0.1-1,0.4-1.1,1
			c-0.6,0.1-1.2,0.5-1.1,1.3c0.2,0.8-0.7,1-0.2,1.7c0.7,2.2,0.4,4.8,0.6,7.2c0.3,0.5,0.7,0.6,0.7,1.4c0.1,0.7,0.9,1.1,1.2,1.5
			c0.2,0.8,0,1.5-0.4,2c0.1,1.2-1.3,1.7-2.3,1.6c-0.6,1.1-1.8,1.6-2.8,2.1c-1.1,0.3-1.5,1.5-2.4,2.2c-0.9,0.5-0.9,1.8-1.9,2.3
			c-0.7,0.4-0.5,1.4-1.2,1.9c-0.4,0.7-1.5,0.7-1.1,1.7c0.2,0.8-1.2,0.9-0.7,1.8c0.4,0.5,0.7,2.1,0.1,2c0.5,0.4,1.1,0.4,1.6-0.1
			c0.5-0.2,0.4-1.4,0.9-1.8c-0.2-0.9,0.4-1,1-0.8c0.5-0.4,0.6-0.7,1-1.2c0.9,0,0.7-1.3,1.4-1.8c0.3-0.5,0.8-1.1,0.5-1.9
			c0.4,0.1,1.3-0.7,1-0.6c-0.2-1.1,0.7-0.9,1.1-1.6c0.1-0.6,1-0.8,1.2-0.3c0.6,0.1,0.5-1,1.3-0.6c0.7,0,0.1,1.6,0.9,1.1
			c1.1,0.4,1.4-0.8,1.7-1.5c0.4-0.5,0.4-1.6,1.2-1.6c-0.1-1.3,0.6-2.9-0.2-3.9c0.1-1.1-0.4-1.4-0.5-2.5c-0.1-1.2-0.5-2.6-0.3-3.9
			c0.3-0.5-0.2-1.7,0-2.5c0.3-1,0.8-1.9,1.6-2.6c1-0.4,2-2,3.2-1.6c0.5,0.4,1.1-0.5,1.7-0.4c0.7-0.3,1.6-0.3,2.2-0.9
			c0.5,0,1.2,0.4,1.4-0.2c0.4-0.6,1.3-1,1.5-1.7c0.1-0.5,0.9-0.3,1-0.7c0.7-0.6,0.7-1.4,1.5-1.8c0.5-1,0.7,0.4,1.2-0.2
			c0.6-1,1.3-1.6,2.1-2.5c0.7-0.4,0.8-1.8,1.8-2.1c0.6-0.2,0.1,1.6,0.1,1.5c0,0.9-0.2,1.6-0.6,2.1c-0.1,0.8,1,1.1,0.8,2.1
			c0.2,0.7,0,1.8,0.3,2.4c1.1,0.3,1.2,1.9,1.6,2.8c0.3,0.9,0.4,1.9,0.5,2.8c0.5,0.3,1.1,0.4,0.9,1.3c-0.2,0.6-0.2,1.3,0.3,1.5
			c0.2,1.2,0.5,2.3,1.1,3.1c0.4,0.6,0.8,1.2,1.4,1.3c0.5,0.8,1.7,1.4,2,2.5c0.4,0.4,1.1,1,1.7,1.2c0.4,0.4,0.8,1.3,1.7,1.3
			c0.9,0.5,1.4,1.5,2.2,1.9c0.7,0.7,1,1.7,1.5,2.5c0.2,0.7,0.2,1.4,1,1.5c0.9,0.7,1.8,1.7,3.1,1.7c0.6-0.7-0.3-1.4-0.7-2
			c-0.5-1.8-0.7-3.9-2.3-5.1c-0.8-0.4-1.8-1.2-2.3-2.2c-1.1-0.6-2.2-0.8-3.1-1.6c-0.7-0.7-0.3-2.1-0.9-2.7c-0.4-0.9-1.3-1.4-2.1-1.8
			c-0.8-1-0.3-2.7-0.9-3.6c0.6-0.6,0.6-2,0.4-2.9c-0.4-0.5-1.2-0.7-1.3-1.6c-0.3-0.7-0.1-1.6-0.6-2.2c0.4-0.5,0.5-1.1,0.3-1.8
			c-0.3-1.5-0.1-3.4-1.4-4.1c-0.1-2-0.2-4.1-1-5.8c-1.1-0.3-0.6-1.9-1.1-2.8c-0.3-1.6,0.8-2.6,1.4-3.9c1-0.8,1.6-2.2,2.2-3.2
			c0.7-0.8,1.6-1.3,1.3-2.6c-0.1-1.2-0.6-1.9-1.4-2.7c0.2-0.8,0.8-1.5,1-2.4c0.5-0.9,0.8-1.7,1.2-2.6c0.3-0.7,0.8-1.6,0.3-2.4
			c-0.3-0.3-0.7-1.1-0.3-1.6c0.7-0.6,0.7-1.8,1.6-2.4c0.6-0.3,1.4,0.4,0.6,0.9c-0.5,0.4-0.2,1.9,0.4,1.1c0.5-0.3,2,0.1,1.6-1
			c-0.1-1.2-0.4-1.6-0.2-2c0.2-0.3,0.8-0.7,1.3-1.4c1-0.4,0.3,1.2,1,0.6c0.7-0.2,1.5,0.1,2-0.6c0.2-0.4,0.8-0.9,1-1.6
			c0.5-0.7,1.4-1.4,2.1-0.8c0.8-0.4,1.9-0.3,2.5,0.2c0.5,0,2,0.9,2.6,0.8c0.5-0.1,1.5-0.5,0.3-0.9c-1.1-0.3-1.8-1.1-3.2-1
			c-1.1-0.2-2.6-0.3-3.6,0.3c-0.8,0.1-0.4-1.1-0.1-1.2c-0.1-0.7-0.4-1.4-0.3-2.1c1.2,0.1,2.2-0.4,3.3-0.5c1-0.1,1.5-1.2,2.2-1.9
			c0.3-0.6,0.8-1.3,1.1-2c0.5-1.1,1.8-0.4,2.4,0.1c0.4,0.1,1.1,0.5,1-0.3c0.3-0.5,0.9-0.9,1.2-1.5c0.3-0.4,0.9-1.1-0.1-1.1
			C88.8,11.1,88.9,10.8,88.9,10.6L88.9,10.6L88.9,10.6z"/>
	</g>
</g>
</svg>
