<?xml version="1.0" encoding="utf-8"?>
<!-- Generator: Adobe Illustrator 22.1.0, SVG Export Plug-In . SVG Version: 6.00 Build 0)  -->
<svg version="1.1" id="Layer_1" xmlns="http://www.w3.org/2000/svg" xmlns:xlink="http://www.w3.org/1999/xlink" x="0px" y="0px"
	 viewBox="0 0 283.5 107.7" style="enable-background:new 0 0 283.5 107.7;" xml:space="preserve">
<style type="text/css">
	.st0{fill:#0C6342;}
	.st1{fill:#58595B;}
	.st2{fill:none;stroke:#0C6342;stroke-width:2;stroke-miterlimit:10;}
	.st3{fill:none;stroke:#0C6342;stroke-width:3;stroke-miterlimit:10;}
	.st4{fill-rule:evenodd;clip-rule:evenodd;fill:#FFFFFF;}
	.st5{fill:none;stroke:#6D6E70;stroke-width:0.75;stroke-miterlimit:10;}
	.st6{fill:#009345;}
	.st7{fill:#BE1E2D;}
</style>
<g>
	<path class="st0" d="M107.2,41.9V10.5h1.8v29.7h12.2v1.8H107.2z"/>
</g>
<g>
	<path class="st0" d="M127.3,77.8h-1.7V74c-0.3,0.4-0.7,0.9-1.1,1.2c-2,2-4.4,3-7.2,3c-2.8,0-5.2-1-7.2-3c-2-2-3-4.4-3-7.2
		c0-2.8,1-5.2,3-7.2c2-2,4.4-3,7.2-3c2.8,0,5.2,1,7.2,3c0.4,0.4,0.7,0.8,1.1,1.2V48h1.7V77.8z M125.6,69.7v-3.3
		c-0.3-1.6-1.1-3.1-2.3-4.3c-1.7-1.7-3.6-2.5-6-2.5c-2.3,0-4.3,0.8-6,2.5s-2.5,3.6-2.5,6c0,2.3,0.8,4.3,2.5,6s3.6,2.5,6,2.5
		c2.3,0,4.3-0.8,6-2.5C124.6,72.8,125.3,71.3,125.6,69.7z"/>
	<path class="st0" d="M135.3,53.5c0.3,0.3,0.5,0.7,0.5,1.2c0,0.5-0.2,0.9-0.5,1.2c-0.3,0.3-0.7,0.5-1.2,0.5s-0.9-0.2-1.2-0.5
		c-0.3-0.3-0.5-0.7-0.5-1.2c0-0.5,0.2-0.9,0.5-1.2c0.3-0.3,0.7-0.5,1.2-0.5S135,53.1,135.3,53.5z M135,59.5v18.3h-1.7V59.5H135z"/>
	<path class="st0" d="M156,48l11.2,19.4L178.4,48h1.9l-0.1,0.1v29.7h-1.7V51l-11.3,19.6L155.8,51v26.8h-1.7V48.1l-0.1-0.1H156z"/>
	<path class="st0" d="M188.3,53.5c0.3,0.3,0.5,0.7,0.5,1.2c0,0.5-0.2,0.9-0.5,1.2c-0.3,0.3-0.7,0.5-1.2,0.5c-0.5,0-0.9-0.2-1.2-0.5
		c-0.3-0.3-0.5-0.7-0.5-1.2c0-0.5,0.2-0.9,0.5-1.2s0.7-0.5,1.2-0.5C187.6,53,188,53.1,188.3,53.5z M187.9,59.5v18.3h-1.7V59.5H187.9
		z"/>
	<path class="st0" d="M209.6,73.4l1.8,0.6c-0.3,0.4-0.7,0.9-1.1,1.3c-2,2-4.4,3-7.2,3c-2.8,0-5.2-1-7.2-3c-2-2-3-4.4-3-7.2
		c0-2.8,1-5.2,3-7.2s4.4-3,7.2-3c2.8,0,5.2,1,7.2,3c0.4,0.4,0.8,0.8,1.1,1.3l-1.8,0.7c-0.2-0.2-0.4-0.4-0.6-0.7
		c-1.7-1.6-3.6-2.5-6-2.5c-2.3,0-4.3,0.8-6,2.5c-1.7,1.6-2.5,3.6-2.5,6c0,2.3,0.8,4.3,2.5,6c1.7,1.7,3.6,2.5,6,2.5
		c2.3,0,4.3-0.8,6-2.5C209.2,73.8,209.4,73.6,209.6,73.4z"/>
	<path class="st0" d="M215.8,48h1.7v12.5c1.4-1.4,3.1-2,5.1-2c2.2,0,3.9,0.7,5.3,2c1.4,1.4,2,3.1,2.1,5.1v12.2h-1.7V65.7
		c0-1.6-0.6-2.9-1.7-4s-2.5-1.6-4-1.6c-1.5,0-2.9,0.5-4,1.6c-0.5,0.5-0.9,1-1.1,1.5v14.5h-1.7V48z"/>
	<path class="st0" d="M239,74.3c1.6,1.4,3.5,2.2,5.6,2.2c2.3,0,4.3-0.8,6-2.5c0.2-0.2,0.4-0.4,0.6-0.7L253,74
		c-0.3,0.4-0.7,0.9-1.1,1.3c-2,2-4.4,3-7.2,3c-2.8,0-5.2-1-7.2-3c-2-2-3-4.4-3-7.2c0-2.8,1-5.2,3-7.2s4.4-3,7.2-3
		c2.4,0,4.5,0.7,6.4,2.2c0.3,0.2,0.6,0.5,0.9,0.8c0.1,0.1,0.2,0.2,0.3,0.3l-1.3,1.3L239,74.3z M249.7,61.3c-1.5-1.1-3.1-1.7-5.1-1.7
		c-2.3,0-4.3,0.8-6,2.5c-1.7,1.6-2.5,3.6-2.5,6c0,1.9,0.6,3.6,1.7,5.1L249.7,61.3z"/>
	<path class="st0" d="M259.1,48v29.8h-1.7V48H259.1z"/>
</g>
<path class="st0" d="M90.1,102.4H15.5c-5.9,0-10.7-4.8-10.7-10.7V17c0-5.9,4.8-10.7,10.7-10.7h74.6c5.9,0,10.7,4.8,10.7,10.7v74.6
	C100.8,97.6,96,102.4,90.1,102.4z"/>
<g>
	<path class="st1" d="M107.3,90.4h0.6v1c0.1-0.2,0.2-0.3,0.4-0.5c0.7-0.7,1.6-1.1,2.7-1.1c1,0,1.9,0.4,2.7,1.1s1.1,1.6,1.1,2.7
		c0,1-0.4,1.9-1.1,2.7c-0.7,0.7-1.6,1.1-2.7,1.1c-1,0-1.9-0.4-2.7-1.1c-0.1-0.1-0.3-0.3-0.4-0.5v4h-0.6V90.4z M107.9,93v1.3
		c0.1,0.6,0.4,1.1,0.9,1.6c0.6,0.6,1.3,0.9,2.2,0.9s1.6-0.3,2.2-0.9c0.6-0.6,0.9-1.3,0.9-2.2c0-0.9-0.3-1.6-0.9-2.2
		c-0.6-0.6-1.3-0.9-2.2-0.9s-1.6,0.3-2.2,0.9C108.3,91.8,108,92.4,107.9,93z"/>
	<path class="st1" d="M123.8,97.2h-0.6v-1.4c-0.1,0.2-0.3,0.3-0.4,0.5c-0.7,0.7-1.6,1.1-2.7,1.1c-1,0-1.9-0.4-2.7-1.1
		c-0.7-0.7-1.1-1.6-1.1-2.7c0-1,0.4-1.9,1.1-2.7c0.7-0.7,1.6-1.1,2.7-1.1c1,0,1.9,0.4,2.7,1.1c0.1,0.1,0.3,0.3,0.4,0.5v-1h0.6V97.2z
		 M123.2,94.2V93c-0.1-0.6-0.4-1.1-0.9-1.6c-0.6-0.6-1.3-0.9-2.2-0.9s-1.6,0.3-2.2,0.9c-0.6,0.6-0.9,1.3-0.9,2.2
		c0,0.9,0.3,1.6,0.9,2.2c0.6,0.6,1.3,0.9,2.2,0.9s1.6-0.3,2.2-0.9C122.8,95.3,123,94.8,123.2,94.2z"/>
	<path class="st1" d="M127.7,93.7c-0.5-0.3-0.9-0.5-1.1-0.7c-0.3-0.3-0.5-0.7-0.5-1.1c0-0.5,0.2-0.8,0.5-1.2
		c0.3-0.3,0.7-0.5,1.1-0.5c0.5,0,0.8,0.1,1.1,0.4c0.3,0.3,0.4,0.6,0.4,1v0l-0.5,0.2c0-0.3-0.2-0.6-0.3-0.8s-0.4-0.3-0.7-0.3
		c-0.3,0-0.5,0.1-0.7,0.3c-0.2,0.2-0.3,0.4-0.3,0.7c0,0.3,0.1,0.5,0.3,0.7c0.1,0.1,0.4,0.3,0.7,0.5c0.6,0.3,1,0.6,1.3,0.9
		c0.4,0.4,0.6,0.9,0.6,1.4c0,0.6-0.2,1-0.6,1.4s-0.9,0.6-1.4,0.6c-0.6,0-1-0.2-1.4-0.6c-0.4-0.4-0.6-0.8-0.6-1.3l0.6-0.2
		c0,0.4,0.1,0.7,0.4,1c0.3,0.3,0.6,0.4,1,0.4s0.7-0.1,1-0.4s0.4-0.6,0.4-1c0-0.4-0.1-0.7-0.4-1C128.4,94.2,128.1,94,127.7,93.7z"/>
	<path class="st1" d="M132.4,90.4v-2.9h0.6v2.9h1.4V91h-1.4v6.1h-0.6V91h-1.4v-0.6H132.4z"/>
	<path class="st1" d="M143.4,97.2h-0.6v-1.4c-0.1,0.2-0.3,0.3-0.4,0.5c-0.7,0.7-1.6,1.1-2.7,1.1c-1,0-1.9-0.4-2.7-1.1
		c-0.7-0.7-1.1-1.6-1.1-2.7c0-1,0.4-1.9,1.1-2.7c0.7-0.7,1.6-1.1,2.7-1.1c1,0,1.9,0.4,2.7,1.1c0.1,0.1,0.3,0.3,0.4,0.5v-1h0.6V97.2z
		 M142.8,94.2V93c-0.1-0.6-0.4-1.1-0.9-1.6c-0.6-0.6-1.3-0.9-2.2-0.9s-1.6,0.3-2.2,0.9c-0.6,0.6-0.9,1.3-0.9,2.2
		c0,0.9,0.3,1.6,0.9,2.2c0.6,0.6,1.3,0.9,2.2,0.9s1.6-0.3,2.2-0.9C142.4,95.3,142.7,94.8,142.8,94.2z"/>
	<path class="st1" d="M161,95.6l0.7,0.2c-0.1,0.2-0.3,0.3-0.4,0.5c-0.7,0.7-1.6,1.1-2.7,1.1c-1,0-1.9-0.4-2.7-1.1
		c-0.7-0.7-1.1-1.6-1.1-2.7c0-1,0.4-1.9,1.1-2.7c0.7-0.7,1.6-1.1,2.7-1.1c1,0,1.9,0.4,2.7,1.1c0.2,0.2,0.3,0.3,0.4,0.5l-0.7,0.2
		c-0.1-0.1-0.1-0.2-0.2-0.2c-0.6-0.6-1.3-0.9-2.2-0.9c-0.9,0-1.6,0.3-2.2,0.9s-0.9,1.3-0.9,2.2c0,0.9,0.3,1.6,0.9,2.2
		c0.6,0.6,1.3,0.9,2.2,0.9c0.9,0,1.6-0.3,2.2-0.9C160.9,95.7,160.9,95.6,161,95.6z"/>
	<path class="st1" d="M170.6,97.2H170v-1.4c-0.1,0.2-0.2,0.3-0.4,0.5c-0.7,0.7-1.6,1.1-2.7,1.1c-1,0-1.9-0.4-2.7-1.1
		c-0.7-0.7-1.1-1.6-1.1-2.7c0-1,0.4-1.9,1.1-2.7c0.7-0.7,1.6-1.1,2.7-1.1c1,0,1.9,0.4,2.7,1.1c0.1,0.1,0.3,0.3,0.4,0.5v-1h0.6V97.2z
		 M170,94.2V93c-0.1-0.6-0.4-1.1-0.9-1.6c-0.6-0.6-1.3-0.9-2.2-0.9s-1.6,0.3-2.2,0.9c-0.6,0.6-0.9,1.3-0.9,2.2
		c0,0.9,0.3,1.6,0.9,2.2c0.6,0.6,1.3,0.9,2.2,0.9s1.6-0.3,2.2-0.9C169.6,95.3,169.9,94.8,170,94.2z"/>
	<path class="st1" d="M173.6,91v6.1H173V91h-0.7v-0.6h0.7v-1.8c0-0.5,0.2-0.9,0.6-1.3c0.4-0.3,0.8-0.5,1.3-0.5c0.3,0,0.5,0,0.8,0.1
		l-0.2,0.6c-0.2-0.1-0.4-0.1-0.6-0.1c-0.3,0-0.6,0.1-0.9,0.4c-0.3,0.3-0.4,0.6-0.4,0.9v1.8h1.4V91H173.6z"/>
	<path class="st1" d="M177.1,91v6.1h-0.6V91h-0.7v-0.6h0.7v-1.8c0-0.5,0.2-0.9,0.6-1.3c0.4-0.3,0.8-0.5,1.3-0.5c0.3,0,0.5,0,0.8,0.1
		l-0.2,0.6c-0.2-0.1-0.4-0.1-0.6-0.1c-0.3,0-0.6,0.1-0.9,0.4c-0.3,0.3-0.4,0.6-0.4,0.9v1.8h1.4V91H177.1z"/>
	<path class="st1" d="M181.1,95.9c0.6,0.5,1.3,0.8,2.1,0.8c0.9,0,1.6-0.3,2.2-0.9c0.1-0.1,0.2-0.2,0.2-0.2l0.7,0.2
		c-0.1,0.2-0.3,0.3-0.4,0.5c-0.7,0.7-1.6,1.1-2.7,1.1c-1,0-1.9-0.4-2.7-1.1c-0.7-0.7-1.1-1.6-1.1-2.7c0-1,0.4-1.9,1.1-2.7
		c0.7-0.7,1.6-1.1,2.7-1.1c0.9,0,1.7,0.3,2.3,0.8c0.1,0.1,0.2,0.2,0.3,0.3c0,0,0.1,0.1,0.1,0.1l-0.5,0.5L181.1,95.9z M185,91.1
		c-0.5-0.4-1.2-0.6-1.9-0.6c-0.9,0-1.6,0.3-2.2,0.9s-0.9,1.3-0.9,2.2c0,0.7,0.2,1.3,0.6,1.9L185,91.1z M182.5,87.6l1.1,1.3H183
		l-1.7-1.3H182.5z"/>
	<path class="st1" d="M205,97.2h-0.6v-1.4c-0.1,0.2-0.2,0.3-0.4,0.5c-0.7,0.7-1.6,1.1-2.7,1.1c-1,0-1.9-0.4-2.7-1.1
		c-0.7-0.7-1.1-1.6-1.1-2.7c0-1,0.4-1.9,1.1-2.7c0.7-0.7,1.6-1.1,2.7-1.1c1,0,1.9,0.4,2.7,1.1c0.1,0.1,0.3,0.3,0.4,0.5v-5.2h0.6
		V97.2z M204.4,94.2V93c-0.1-0.6-0.4-1.1-0.9-1.6c-0.6-0.6-1.3-0.9-2.2-0.9s-1.6,0.3-2.2,0.9c-0.6,0.6-0.9,1.3-0.9,2.2
		c0,0.9,0.3,1.6,0.9,2.2c0.6,0.6,1.3,0.9,2.2,0.9s1.6-0.3,2.2-0.9C204,95.3,204.2,94.8,204.4,94.2z"/>
	<path class="st1" d="M210.4,89.8c1,0,1.9,0.4,2.7,1.1c0.7,0.7,1.1,1.6,1.1,2.7c0,1-0.4,1.9-1.1,2.7c-0.7,0.7-1.6,1.1-2.7,1.1
		c-1,0-1.9-0.4-2.7-1.1c-0.7-0.7-1.1-1.6-1.1-2.7c0-1,0.4-1.9,1.1-2.7C208.5,90.2,209.4,89.8,210.4,89.8z M208.2,91.4
		c-0.6,0.6-0.9,1.3-0.9,2.2c0,0.9,0.3,1.6,0.9,2.2c0.6,0.6,1.3,0.9,2.2,0.9s1.6-0.3,2.2-0.9c0.6-0.6,0.9-1.3,0.9-2.2
		c0-0.9-0.3-1.6-0.9-2.2c-0.6-0.6-1.3-0.9-2.2-0.9S208.8,90.8,208.2,91.4z"/>
	<path class="st1" d="M216.5,86.2v11h-0.6v-11H216.5z"/>
	<path class="st1" d="M224.3,95.6l0.7,0.2c-0.1,0.2-0.3,0.3-0.4,0.5c-0.7,0.7-1.6,1.1-2.7,1.1c-1,0-1.9-0.4-2.7-1.1
		c-0.7-0.7-1.1-1.6-1.1-2.7c0-1,0.4-1.9,1.1-2.7c0.7-0.7,1.6-1.1,2.7-1.1c1,0,1.9,0.4,2.7,1.1c0.2,0.2,0.3,0.3,0.4,0.5l-0.7,0.2
		c-0.1-0.1-0.1-0.2-0.2-0.2c-0.6-0.6-1.3-0.9-2.2-0.9c-0.9,0-1.6,0.3-2.2,0.9s-0.9,1.3-0.9,2.2c0,0.9,0.3,1.6,0.9,2.2
		c0.6,0.6,1.3,0.9,2.2,0.9c0.9,0,1.6-0.3,2.2-0.9C224.2,95.7,224.3,95.6,224.3,95.6z"/>
	<path class="st1" d="M227.9,95.9c0.6,0.5,1.3,0.8,2.1,0.8c0.9,0,1.6-0.3,2.2-0.9c0.1-0.1,0.2-0.2,0.2-0.2l0.7,0.2
		c-0.1,0.2-0.3,0.3-0.4,0.5c-0.7,0.7-1.6,1.1-2.7,1.1c-1,0-1.9-0.4-2.7-1.1c-0.7-0.7-1.1-1.6-1.1-2.7c0-1,0.4-1.9,1.1-2.7
		c0.7-0.7,1.6-1.1,2.7-1.1c0.9,0,1.7,0.3,2.3,0.8c0.1,0.1,0.2,0.2,0.3,0.3c0,0,0.1,0.1,0.1,0.1l-0.5,0.5L227.9,95.9z M231.9,91.1
		c-0.5-0.4-1.2-0.6-1.9-0.6c-0.9,0-1.6,0.3-2.2,0.9s-0.9,1.3-0.9,2.2c0,0.7,0.2,1.3,0.6,1.9L231.9,91.1z"/>
</g>
<path class="st2" d="M269.5,102.4H14.3c-5.1,0-9.2-4.1-9.2-9.2V15.5c0-5.1,4.1-9.2,9.2-9.2h255.3c5.1,0,9.2,4.1,9.2,9.2v77.7
	C278.7,98.3,274.6,102.4,269.5,102.4z"/>
<rect x="11.1" y="6.2" class="st0" width="89.7" height="96.4"/>
<line class="st3" x1="126.7" y1="8.9" x2="126.7" y2="16.4"/>
<g>
	<path class="st0" d="M152.3,40.9h-1.8V37c-0.3,0.5-0.7,0.9-1.1,1.3c-2.1,2.1-4.7,3.2-7.6,3.2c-3,0-5.5-1.1-7.6-3.2
		c-2.1-2.1-3.2-4.6-3.2-7.6c0-3,1.1-5.5,3.2-7.6c2.1-2.1,4.6-3.2,7.6-3.2c3,0,5.5,1.1,7.6,3.2c0.4,0.4,0.8,0.9,1.1,1.3v-2.7h1.8
		V40.9z M150.6,32.4v-3.5c-0.3-1.7-1.1-3.2-2.5-4.6c-1.7-1.7-3.8-2.6-6.3-2.6s-4.6,0.9-6.3,2.6c-1.7,1.7-2.6,3.8-2.6,6.3
		c0,2.5,0.9,4.6,2.6,6.3c1.7,1.7,3.8,2.6,6.3,2.6s4.6-0.9,6.3-2.6C149.4,35.7,150.2,34.2,150.6,32.4z"/>
	<path class="st0" d="M160,25.9v15h-1.8V21.6h1.8v1.2c1.6-1.6,3.5-2.4,5.6-2.4c2.3,0,4.1,0.7,5.6,2.1s2.2,3.2,2.2,5.4v12.9h-1.8
		V28.2c0-1.6-0.6-3-1.8-4.2s-2.6-1.7-4.2-1.7c-1.6,0-3,0.6-4.2,1.7C160.8,24.6,160.3,25.3,160,25.9z"/>
	<path class="st0" d="M198.2,37.1c-0.3,0.4-0.7,0.8-1.1,1.2c-2.1,2.1-4.7,3.2-7.6,3.2c-3,0-5.5-1.1-7.6-3.2
		c-2.1-2.1-3.2-4.6-3.2-7.6c0-3,1.1-5.5,3.2-7.6c2.1-2.1,4.6-3.2,7.6-3.2c3,0,5.5,1,7.6,3.1c0.4,0.4,0.8,0.9,1.1,1.3v-2.7h1.8v15
		c0,2.9-1,5.4-3.1,7.4c-2.1,2.1-4.6,3.2-7.6,3.2c-3,0-5.5-1.1-7.6-3.2c-0.4-0.4-0.8-0.9-1.2-1.4l1.9-0.7c0.2,0.2,0.4,0.5,0.6,0.7
		c1.7,1.7,3.8,2.6,6.3,2.6c2.4,0,4.5-0.9,6.3-2.6C197.2,41.1,198.1,39.3,198.2,37.1z M198.3,28.8c-0.3-1.7-1.2-3.2-2.4-4.5
		c-1.7-1.7-3.8-2.6-6.3-2.6c-2.5,0-4.6,0.9-6.3,2.6c-1.7,1.7-2.6,3.8-2.6,6.3c0,2.5,0.9,4.6,2.6,6.3s3.8,2.6,6.3,2.6
		c2.5,0,4.6-0.9,6.3-2.6c1.3-1.3,2.1-2.7,2.4-4.4V28.8z"/>
	<path class="st0" d="M215.6,19.9c3,0,5.5,1.1,7.6,3.2c2.1,2.1,3.2,4.7,3.2,7.6c0,3-1.1,5.5-3.2,7.6c-2.1,2.1-4.6,3.2-7.6,3.2
		c-3,0-5.5-1.1-7.6-3.2c-2.1-2.1-3.2-4.6-3.2-7.6c0-3,1.1-5.5,3.2-7.6S212.7,19.9,215.6,19.9z M209.3,24.4c-1.7,1.7-2.6,3.8-2.6,6.3
		c0,2.5,0.9,4.6,2.6,6.3c1.7,1.7,3.8,2.6,6.3,2.6s4.6-0.9,6.3-2.6c1.7-1.7,2.6-3.8,2.6-6.3c0-2.5-0.9-4.6-2.6-6.3
		c-1.7-1.7-3.8-2.6-6.3-2.6S211.1,22.7,209.3,24.4z"/>
	<path class="st0" d="M232.9,9.5v31.4h-1.8V9.5H232.9z"/>
	<path class="st0" d="M248.4,19.9c3,0,5.5,1.1,7.6,3.2c2.1,2.1,3.2,4.7,3.2,7.6c0,3-1.1,5.5-3.2,7.6c-2.1,2.1-4.6,3.2-7.6,3.2
		c-3,0-5.5-1.1-7.6-3.2c-2.1-2.1-3.2-4.6-3.2-7.6c0-3,1.1-5.5,3.2-7.6S245.4,19.9,248.4,19.9z M242.1,24.4c-1.7,1.7-2.6,3.8-2.6,6.3
		c0,2.5,0.9,4.6,2.6,6.3c1.7,1.7,3.8,2.6,6.3,2.6s4.6-0.9,6.3-2.6c1.7-1.7,2.6-3.8,2.6-6.3c0-2.5-0.9-4.6-2.6-6.3
		c-1.7-1.7-3.8-2.6-6.3-2.6S243.8,22.7,242.1,24.4z"/>
</g>
<g>
	<g>
		<path class="st4" d="M81.8,20.5C81.7,20.5,81.8,20.5,81.8,20.5L81.8,20.5L81.8,20.5z M81.7,20.5L81.7,20.5L81.7,20.5L81.7,20.5z
			 M85.7,8c-1.2,0-2.5,1.1-3.6,0.5c-1.1-0.4-0.5,1.5-1.2,2c-0.8,0.7-1.4,1.8-1.9,2.8c-0.5,0.9-1.6,1.1-2.3,1.7
			c-1.5,0.4-2.9-0.1-4.6,0.1c-1.1,0-1.8,0.8-2.7,1.4c-0.8-0.1-1.4,0.2-1.4,1.1c-0.9,0-1.3,0.3-1.4,1.2c-0.5,0.8-1.5,0.9-2.4,1.2
			c-1.5-0.2-2.1,1.6-2.9,2.2c-0.8,1.1-2,1.8-2.5,3c-0.3,0.7-1.1,1.1-0.9,2.2c-0.1,2.8,0.2,5.8-0.3,8.4c-0.2,1,0,2.2-0.4,2.9
			c-0.8-0.4-1,0.8-1.3,1.3c-0.1,0.8-0.8,1.4-1.1,2.1c-0.5,1-1.1,1.4-1.8,2.3c-0.5,0.5-0.8,1.2-1.2,1.8c-0.6,0.8,0,1.6,0.2,2.4
			c-0.9-0.1,0.5,1.2-0.6,1.2c-0.2,1.7-0.3,3.5-0.4,5.3c0.2,0.6,0.9,1,0.4,1.7c-0.9,0.1-1.4,1.2-2.6,1.1c-1.3,0.4-2.2,1.6-3.5,1.7
			c-0.6,0.5-1.2,1.2-2.1,1.3c-0.7,0.6-1,1.9-2.5,1.6c-1.5,0-2.5,0.8-3.8,1.3c-1,1-2.3,1.7-3.4,2.6c-0.8-0.1-1,0.4-1.1,1
			c-0.6,0.1-1.2,0.5-1.1,1.3c0.2,0.9-0.7,1.1-0.2,1.8c0.7,2.3,0.4,5.1,0.6,7.6c0.3,0.5,0.8,0.7,0.7,1.4c0.1,0.8,0.9,1.2,1.3,1.5
			c0.2,0.9,0,1.6-0.4,2.1c0.1,1.3-1.4,1.8-2.5,1.7c-0.7,1.2-1.9,1.7-2.9,2.2c-1.2,0.3-1.6,1.6-2.5,2.3c-1,0.6-0.9,1.9-2,2.5
			c-0.8,0.4-0.5,1.5-1.3,2c-0.4,0.8-1.5,0.7-1.2,1.8c0.2,0.8-1.3,0.9-0.7,1.9c0.4,0.6,0.7,2.2,0.1,2.1c0.5,0.4,1.2,0.5,1.7-0.1
			c0.6-0.2,0.4-1.5,0.9-1.9c-0.2-0.9,0.4-1.1,1.1-0.9c0.5-0.4,0.7-0.7,1.1-1.3c1-0.1,0.8-1.4,1.4-1.9c0.3-0.5,0.9-1.1,0.5-2
			c0.4,0.1,1.4-0.8,1-0.6c-0.2-1.2,0.8-0.9,1.2-1.7c0.1-0.6,1-0.8,1.2-0.3c0.6,0.1,0.5-1,1.3-0.6c0.7,0,0.1,1.7,0.9,1.2
			c1.1,0.4,1.5-0.8,1.8-1.6c0.4-0.5,0.4-1.7,1.3-1.7c-0.1-1.4,0.6-3.1-0.2-4.1c0.2-1.1-0.4-1.5-0.5-2.6c-0.1-1.3-0.6-2.8-0.3-4.2
			c0.3-0.6-0.2-1.8,0-2.6c0.3-1,0.9-2.1,1.7-2.7c1.1-0.5,2.1-2.1,3.4-1.7c0.5,0.4,1.2-0.5,1.8-0.4c0.7-0.3,1.7-0.3,2.3-0.9
			c0.5,0,1.3,0.4,1.5-0.2c0.4-0.7,1.4-1,1.6-1.8c0.1-0.5,0.9-0.3,1.1-0.7c0.7-0.6,0.8-1.5,1.6-1.9c0.6-1.1,0.8,0.4,1.3-0.2
			c0.6-1.1,1.4-1.7,2.2-2.6c0.8-0.4,0.8-1.9,1.9-2.2c0.6-0.2,0.1,1.7,0.1,1.6c0,1-0.2,1.7-0.6,2.2c-0.1,0.9,1.1,1.1,0.9,2.2
			c0.2,0.7,0,2,0.3,2.6c1.2,0.3,1.3,2,1.7,2.9c0.3,1,0.4,2,0.5,3c0.6,0.3,1.2,0.4,0.9,1.3c-0.3,0.6-0.2,1.3,0.3,1.6
			c0.2,1.2,0.5,2.4,1.2,3.3c0.4,0.6,0.9,1.3,1.5,1.4c0.6,0.8,1.9,1.4,2.1,2.7c0.4,0.5,1.1,1.1,1.8,1.3c0.5,0.5,0.9,1.4,1.8,1.4
			c1,0.5,1.5,1.6,2.3,2c0.8,0.7,1,1.8,1.6,2.6c0.2,0.8,0.2,1.5,1.1,1.6c1,0.7,1.9,1.8,3.3,1.8c0.6-0.7-0.3-1.5-0.7-2.1
			c-0.5-1.9-0.7-4.2-2.4-5.4c-0.9-0.4-1.9-1.3-2.5-2.3c-1.1-0.6-2.4-0.9-3.3-1.7c-0.8-0.8-0.3-2.2-1-2.9c-0.5-1-1.4-1.5-2.2-1.9
			c-0.8-1-0.3-2.9-1-3.8c0.6-0.6,0.6-2.1,0.4-3.1c-0.5-0.6-1.3-0.7-1.3-1.7c-0.4-0.7-0.2-1.7-0.6-2.3c0.4-0.5,0.6-1.2,0.3-1.9
			c-0.3-1.6-0.1-3.6-1.4-4.4c-0.1-2.1-0.2-4.4-1-6.2c-1.1-0.3-0.6-2-1.1-2.9c-0.3-1.7,0.8-2.8,1.5-4.1c1.1-0.9,1.7-2.3,2.3-3.4
			c0.7-0.8,1.7-1.4,1.3-2.8c-0.1-1.3-0.6-2-1.5-2.9c0.2-0.8,0.9-1.6,1.1-2.6c0.5-1,0.9-1.8,1.3-2.8c0.3-0.8,0.8-1.7,0.3-2.6
			c-0.3-0.3-0.7-1.1-0.3-1.7c0.7-0.7,0.7-1.9,1.7-2.6c0.7-0.3,1.5,0.4,0.7,1c-0.5,0.4-0.2,2,0.4,1.2c0.5-0.3,2.1,0.1,1.7-1
			c-0.1-1.3-0.4-1.7-0.2-2.1c0.2-0.4,0.8-0.7,1.4-1.5c1-0.4,0.3,1.3,1.1,0.6c0.7-0.2,1.6,0.1,2.1-0.6c0.3-0.5,0.9-1,1.1-1.7
			c0.6-0.7,1.5-1.5,2.2-0.8c0.9-0.4,2-0.4,2.7,0.2c0.5,0,2.2,0.9,2.7,0.8c0.5-0.1,1.6-0.5,0.3-1c-1.1-0.3-1.9-1.1-3.4-1
			c-1.2-0.2-2.7-0.4-3.8,0.3c-0.9,0.2-0.5-1.1-0.1-1.3c-0.1-0.7-0.4-1.5-0.3-2.2c1.3,0.1,2.3-0.4,3.5-0.5c1.1-0.1,1.6-1.3,2.3-2
			c0.4-0.7,0.9-1.3,1.1-2.1c0.5-1.1,2-0.4,2.6,0.1c0.4,0.1,1.2,0.6,1-0.3c0.3-0.5,0.9-0.9,1.3-1.6c0.3-0.4,0.9-1.2-0.1-1.1
			C85.6,8.6,85.8,8.3,85.7,8L85.7,8L85.7,8z"/>
	</g>
</g>
<circle class="st5" cx="191.6" cy="93.5" r="1.8"/>
<circle class="st6" cx="148.8" cy="93.5" r="1.8"/>
<circle class="st7" cx="237" cy="93.5" r="1.8"/>
</svg>
