<?xml version="1.0" encoding="utf-8"?>
<!-- Generator: Adobe Illustrator 22.1.0, SVG Export Plug-In . SVG Version: 6.00 Build 0)  -->
<svg version="1.1" id="Layer_1" xmlns="http://www.w3.org/2000/svg" xmlns:xlink="http://www.w3.org/1999/xlink" x="0px" y="0px"
	 viewBox="0 0 595.3 841.9" style="enable-background:new 0 0 595.3 841.9;" xml:space="preserve">
<style type="text/css">
	.st0{fill:#FFFFFF;}
	.st1{fill:#0D6342;}
	.st2{font-family:'CaviarDreams';}
	.st3{font-size:79.7885px;}
	.st4{font-size:75.68px;}
	.st5{fill:#58595B;}
	.st6{font-size:28px;}
	.st7{fill:none;stroke:#0D6342;stroke-width:2;stroke-miterlimit:10;}
	.st8{fill:none;stroke:#0D6342;stroke-width:3;stroke-miterlimit:10;}
	.st9{fill-rule:evenodd;clip-rule:evenodd;fill:#FFFFFF;}
	.st10{fill-rule:evenodd;clip-rule:evenodd;fill:#212121;}
	.st11{fill:#F1F2F2;}
	.st12{fill:#D1D3D4;}
	.st13{fill:#F1F2F2;stroke:#F1F2F2;stroke-width:3;stroke-miterlimit:10;}
	.st14{fill:none;stroke:#6D6E71;stroke-width:0.75;stroke-miterlimit:10;}
	.st15{fill:#009444;}
	.st16{fill:#BE1E2D;}
</style>
<rect x="-1400.7" y="166" class="st0" width="748.6" height="752.6"/>
<text transform="matrix(1 0 0 1 224.9082 165.6898)" class="st1 st2 st3">L </text>
<text transform="matrix(1 0 0 1 225.9108 236.827)" class="st1 st2 st4">di Michel</text>
<path class="st1" d="M207.4,285.7H38.2c-5.9,0-10.7-4.8-10.7-10.7V105.8c0-5.9,4.8-10.7,10.7-10.7h169.2c5.9,0,10.7,4.8,10.7,10.7
	V275C218.1,280.9,213.3,285.7,207.4,285.7z"/>
<text transform="matrix(1 0 0 1 228.8159 275.398)" class="st5 st2 st6">pasta  caffè  dolce</text>
<path class="st7" d="M561.8,285.7H37.3c-5.1,0-9.2-4.1-9.2-9.2V104.3c0-5.1,4.1-9.2,9.2-9.2h524.5c5.1,0,9.2,4.1,9.2,9.2v172.3
	C571,281.6,566.9,285.7,561.8,285.7z"/>
<rect x="40.1" y="94.9" class="st1" width="177.9" height="191.3"/>
<line class="st8" x1="269.4" y1="100.3" x2="269.4" y2="115.1"/>
<text transform="matrix(1 0 0 1 273.1296 163.7616)" class="st1 st2 st3">angolo</text>
<g>
	<g>
		<path class="st9" d="M180.3,123.2C180.1,123.2,180.4,123.2,180.3,123.2L180.3,123.2L180.3,123.2z M180.2,123.2L180.2,123.2
			L180.2,123.2L180.2,123.2z M188.1,98.5c-2.5,0-5,2.1-7.2,1c-2.2-0.8-1,2.9-2.3,3.9c-1.5,1.3-2.8,3.6-3.7,5.6
			c-0.9,1.8-3.1,2.2-4.7,3.3c-2.9,0.9-5.7-0.3-9,0.1c-2.2,0-3.6,1.7-5.4,2.9c-1.6-0.2-2.9,0.4-2.8,2.1c-1.8,0.1-2.5,0.6-2.9,2.4
			c-1,1.5-3.1,1.7-4.8,2.4c-2.9-0.4-4.2,3.2-5.8,4.4c-1.6,2.2-3.9,3.5-5,5.9c-0.5,1.4-2.1,2.2-1.8,4.4c-0.2,5.6,0.5,11.5-0.6,16.6
			c-0.4,1.9,0,4.4-0.7,5.8c-1.7-0.7-2,1.6-2.5,2.5c-0.2,1.5-1.6,2.7-2.1,4.1c-1.1,2-2.1,2.9-3.6,4.7c-1,1-1.6,2.5-2.4,3.6
			c-1.1,1.5,0,3.3,0.4,4.7c-1.9-0.3,1,2.4-1.2,2.4c-0.4,3.5-0.5,7-0.7,10.5c0.5,1.1,1.7,2,0.8,3.3c-1.8,0.3-2.8,2.3-5.2,2.2
			c-2.6,0.8-4.3,3.2-6.9,3.4c-1.2,1-2.3,2.3-4.2,2.6c-1.5,1.1-2.1,3.8-4.9,3.2c-3,0-4.9,1.6-7.6,2.6c-2,1.9-4.5,3.4-6.7,5.1
			c-1.5-0.2-2.1,0.8-2.2,2c-1.3,0.1-2.4,1-2.2,2.7c0.4,1.7-1.4,2.1-0.4,3.6c1.4,4.6,0.7,10.1,1.2,15.1c0.5,1,1.5,1.3,1.4,2.9
			c0.3,1.5,1.8,2.4,2.5,3.1c0.5,1.8,0,3.2-0.8,4.2c0.2,2.5-2.7,3.5-4.9,3.4c-1.3,2.4-3.7,3.5-5.8,4.3c-2.4,0.6-3.2,3.1-5,4.7
			c-1.9,1.2-1.8,3.9-3.9,4.9c-1.6,0.9-1,3-2.5,3.9c-0.9,1.5-3.1,1.5-2.3,3.6c0.4,1.6-2.5,1.9-1.4,3.7c0.8,1.1,1.4,4.4,0.2,4.1
			c1,0.8,2.3,0.9,3.4-0.1c1.1-0.5,0.8-2.9,1.8-3.8c-0.4-1.9,0.9-2.2,2.1-1.7c1.1-0.8,1.3-1.4,2.1-2.5c2-0.1,1.5-2.7,2.9-3.7
			c0.6-1,1.7-2.3,1-3.9c0.9,0.3,2.7-1.5,2-1.2c-0.4-2.4,1.5-1.8,2.3-3.3c0.1-1.3,2.1-1.6,2.4-0.5c1.3,0.2,1-2.1,2.6-1.2
			c1.5-0.1,0.3,3.4,1.8,2.3c2.2,0.8,2.9-1.6,3.5-3.2c0.9-1.1,0.8-3.3,2.5-3.3c-0.3-2.8,1.2-6.2-0.3-8.2c0.3-2.2-0.9-3-1-5.2
			c-0.3-2.5-1.1-5.5-0.6-8.3c0.7-1.1-0.4-3.5,0.1-5.2c0.6-2.1,1.7-4.1,3.3-5.4c2.1-0.9,4.2-4.2,6.8-3.3c1,0.8,2.3-1,3.5-0.7
			c1.4-0.6,3.3-0.5,4.6-1.8c1,0.1,2.5,0.8,3-0.4c0.8-1.3,2.7-2,3.2-3.6c0.1-1,1.8-0.7,2.1-1.5c1.4-1.2,1.5-3,3.2-3.7
			c1.1-2.1,1.5,0.8,2.5-0.3c1.2-2.1,2.8-3.3,4.4-5.2c1.6-0.8,1.7-3.8,3.8-4.3c1.2-0.4,0.2,3.4,0.2,3.2c0,1.9-0.4,3.3-1.3,4.4
			c-0.2,1.8,2.1,2.3,1.7,4.3c0.4,1.5,0,3.9,0.6,5.1c2.4,0.6,2.6,4,3.3,5.8c0.6,1.9,0.9,4,1.1,5.9c1.1,0.6,2.3,0.8,1.8,2.6
			c-0.5,1.2-0.4,2.7,0.6,3.2c0.4,2.5,1,4.8,2.3,6.5c0.8,1.2,1.7,2.5,3,2.8c1.1,1.6,3.7,2.9,4.1,5.3c0.8,0.9,2.3,2.2,3.6,2.6
			c0.9,0.9,1.8,2.8,3.6,2.7c1.9,1,2.9,3.2,4.6,3.9c1.5,1.5,2,3.5,3.1,5.3c0.4,1.5,0.4,3,2.1,3.2c1.9,1.4,3.8,3.6,6.5,3.5
			c1.2-1.4-0.6-3-1.5-4.1c-1-3.8-1.4-8.3-4.8-10.8c-1.7-0.8-3.7-2.6-4.9-4.7c-2.3-1.3-4.7-1.7-6.6-3.3c-1.5-1.5-0.6-4.4-1.9-5.7
			c-0.9-2-2.8-3-4.3-3.8c-1.6-2-0.6-5.7-1.9-7.5c1.2-1.3,1.2-4.2,0.8-6.1c-0.9-1.1-2.5-1.5-2.6-3.3c-0.7-1.5-0.3-3.4-1.3-4.6
			c0.8-1,1.1-2.4,0.5-3.8c-0.5-3.2-0.2-7.2-2.9-8.7c-0.2-4.2-0.4-8.7-2-12.2c-2.2-0.7-1.3-3.9-2.2-5.8c-0.7-3.4,1.7-5.5,3-8.2
			c2.2-1.8,3.3-4.6,4.6-6.8c1.4-1.6,3.3-2.8,2.6-5.5c-0.3-2.6-1.2-3.9-3-5.7c0.4-1.7,1.7-3.2,2.1-5.1c1-1.9,1.7-3.6,2.5-5.5
			c0.7-1.5,1.6-3.4,0.5-5.1c-0.6-0.7-1.4-2.3-0.5-3.3c1.5-1.3,1.5-3.8,3.4-5.1c1.3-0.7,3,0.7,1.3,1.9c-1,0.8-0.4,3.9,0.8,2.3
			c1.1-0.7,4.1,0.3,3.3-2c-0.2-2.5-0.8-3.4-0.4-4.3c0.4-0.7,1.6-1.5,2.7-3c2-0.9,0.7,2.6,2.1,1.3c1.4-0.4,3.1,0.1,4.2-1.2
			c0.5-0.9,1.7-1.9,2.1-3.4c1.1-1.4,2.9-3,4.4-1.6c1.7-0.9,4-0.7,5.3,0.3c1,0.1,4.3,1.8,5.4,1.7c1-0.1,3.1-1,0.6-2
			c-2.2-0.5-3.7-2.2-6.7-2c-2.4-0.5-5.4-0.7-7.6,0.5c-1.7,0.3-0.9-2.2-0.1-2.5c-0.2-1.4-0.8-2.9-0.5-4.3c2.5,0.3,4.6-0.9,7-1
			c2.1-0.2,3.2-2.5,4.7-3.9c0.7-1.3,1.7-2.7,2.2-4.1c1-2.2,3.9-0.8,5.1,0.1c0.7,0.1,2.4,1.1,2-0.6c0.6-1.1,1.9-1.9,2.5-3.2
			c0.5-0.8,1.9-2.4-0.2-2.2C187.9,99.6,188.2,99,188.1,98.5L188.1,98.5L188.1,98.5z"/>
	</g>
</g>
<rect x="-0.6" y="404.3" class="st10" width="595.4" height="437.2"/>
<text transform="matrix(1 0 0 1 227.5933 601.1044)" class="st11 st2 st3">L </text>
<text transform="matrix(1 0 0 1 228.5959 672.2416)" class="st11 st2 st4">di Michel</text>
<path class="st1" d="M210.1,721.1H40.9c-5.9,0-10.7-4.8-10.7-10.7V541.2c0-5.9,4.8-10.7,10.7-10.7h169.2c5.9,0,10.7,4.8,10.7,10.7
	v169.2C220.8,716.3,216,721.1,210.1,721.1z"/>
<text transform="matrix(1 0 0 1 231.501 710.8125)" class="st12 st2 st6">pasta  caffè  dolce</text>
<path class="st7" d="M564.5,721.1H39.9c-5.1,0-9.2-4.1-9.2-9.2V539.7c0-5.1,4.1-9.2,9.2-9.2h524.5c5.1,0,9.2,4.1,9.2,9.2v172.3
	C573.7,717,569.6,721.1,564.5,721.1z"/>
<rect x="42.7" y="530.3" class="st1" width="177.9" height="191.3"/>
<line class="st13" x1="272" y1="535.7" x2="272" y2="550.5"/>
<text transform="matrix(1 0 0 1 275.8147 599.1761)" class="st11 st2 st3">angolo</text>
<circle class="st14" cx="401.3" cy="704.6" r="3.5"/>
<circle class="st15" cx="317.3" cy="704.6" r="3.5"/>
<circle class="st16" cx="493.4" cy="704.6" r="3.5"/>
<g>
	<g>
		<path class="st9" d="M183,558.6C182.8,558.6,183,558.6,183,558.6L183,558.6L183,558.6z M182.9,558.6L182.9,558.6L182.9,558.6
			L182.9,558.6z M190.8,533.9c-2.5,0-5,2.1-7.2,1c-2.2-0.8-1,2.9-2.3,3.9c-1.5,1.3-2.8,3.6-3.7,5.6c-0.9,1.8-3.1,2.2-4.7,3.3
			c-2.9,0.9-5.7-0.3-9,0.1c-2.2,0-3.6,1.7-5.4,2.9c-1.6-0.2-2.9,0.4-2.8,2.1c-1.8,0.1-2.5,0.6-2.9,2.4c-1,1.5-3.1,1.7-4.8,2.4
			c-2.9-0.4-4.2,3.2-5.8,4.4c-1.6,2.2-3.9,3.5-5,5.9c-0.5,1.4-2.1,2.2-1.8,4.4c-0.2,5.6,0.5,11.5-0.6,16.6c-0.4,1.9,0,4.4-0.7,5.8
			c-1.7-0.7-2,1.6-2.5,2.5c-0.2,1.5-1.6,2.7-2.1,4.1c-1.1,2-2.1,2.9-3.6,4.7c-1,1-1.6,2.5-2.4,3.6c-1.1,1.5,0,3.3,0.4,4.7
			c-1.9-0.3,1,2.4-1.2,2.4c-0.4,3.5-0.5,7-0.7,10.5c0.5,1.1,1.7,2,0.8,3.3c-1.8,0.3-2.8,2.3-5.2,2.2c-2.6,0.8-4.3,3.2-6.9,3.4
			c-1.2,1-2.3,2.3-4.2,2.6c-1.5,1.1-2.1,3.8-4.9,3.2c-3,0-4.9,1.6-7.6,2.6c-2,1.9-4.5,3.4-6.7,5.1c-1.5-0.2-2.1,0.8-2.2,2
			c-1.3,0.1-2.4,1-2.2,2.7c0.4,1.7-1.4,2.1-0.4,3.6c1.4,4.6,0.7,10.1,1.2,15.1c0.5,1,1.5,1.3,1.4,2.9c0.3,1.5,1.8,2.4,2.5,3.1
			c0.5,1.8,0,3.2-0.8,4.2c0.2,2.5-2.7,3.5-4.9,3.4c-1.3,2.4-3.7,3.5-5.8,4.3c-2.4,0.6-3.2,3.1-5,4.7c-1.9,1.2-1.8,3.9-3.9,4.9
			c-1.6,0.9-1,3-2.5,3.9c-0.9,1.5-3.1,1.5-2.3,3.6c0.4,1.6-2.5,1.9-1.4,3.7c0.8,1.1,1.4,4.4,0.2,4.1c1,0.8,2.3,0.9,3.4-0.1
			c1.1-0.5,0.8-2.9,1.8-3.8c-0.4-1.9,0.9-2.2,2.1-1.7c1.1-0.8,1.3-1.4,2.1-2.5c2-0.1,1.5-2.7,2.9-3.7c0.6-1,1.7-2.3,1-3.9
			c0.9,0.3,2.7-1.5,2-1.2c-0.4-2.4,1.5-1.8,2.3-3.3c0.1-1.3,2.1-1.6,2.4-0.5c1.3,0.2,1-2.1,2.6-1.2c1.5-0.1,0.3,3.4,1.8,2.3
			c2.2,0.8,2.9-1.6,3.5-3.2c0.9-1.1,0.8-3.3,2.5-3.3c-0.3-2.8,1.2-6.2-0.3-8.2c0.3-2.2-0.9-3-1-5.2c-0.3-2.5-1.1-5.5-0.6-8.3
			c0.7-1.1-0.4-3.5,0.1-5.2c0.6-2.1,1.7-4.1,3.3-5.4c2.1-0.9,4.2-4.2,6.8-3.3c1,0.8,2.3-1,3.5-0.7c1.4-0.6,3.3-0.5,4.6-1.8
			c1,0.1,2.5,0.8,3-0.4c0.8-1.3,2.7-2,3.2-3.6c0.1-1,1.8-0.7,2.1-1.5c1.4-1.2,1.5-3,3.2-3.7c1.1-2.1,1.5,0.8,2.5-0.3
			c1.2-2.1,2.8-3.3,4.4-5.2c1.6-0.8,1.7-3.8,3.8-4.3c1.2-0.4,0.2,3.4,0.2,3.2c0,1.9-0.4,3.3-1.3,4.4c-0.2,1.8,2.1,2.3,1.7,4.3
			c0.4,1.5,0,3.9,0.6,5.1c2.4,0.6,2.6,4,3.3,5.8c0.6,1.9,0.9,4,1.1,5.9c1.1,0.6,2.3,0.8,1.8,2.6c-0.5,1.2-0.4,2.7,0.6,3.2
			c0.4,2.5,1,4.8,2.3,6.5c0.8,1.2,1.7,2.5,3,2.8c1.1,1.6,3.7,2.9,4.1,5.3c0.8,0.9,2.3,2.2,3.6,2.6c0.9,0.9,1.8,2.8,3.6,2.7
			c1.9,1,2.9,3.2,4.6,3.9c1.5,1.5,2,3.5,3.1,5.3c0.4,1.5,0.4,3,2.1,3.2c1.9,1.4,3.8,3.6,6.5,3.5c1.2-1.4-0.6-3-1.5-4.1
			c-1-3.8-1.4-8.3-4.8-10.8c-1.7-0.8-3.7-2.6-4.9-4.7c-2.3-1.3-4.7-1.7-6.6-3.3c-1.5-1.5-0.6-4.4-1.9-5.7c-0.9-2-2.8-3-4.3-3.8
			c-1.6-2-0.6-5.7-1.9-7.5c1.2-1.3,1.2-4.2,0.8-6.1c-0.9-1.1-2.5-1.5-2.6-3.3c-0.7-1.5-0.3-3.4-1.3-4.6c0.8-1,1.1-2.4,0.5-3.8
			c-0.5-3.2-0.2-7.2-2.9-8.7c-0.2-4.2-0.4-8.7-2-12.2c-2.2-0.7-1.3-3.9-2.2-5.8c-0.7-3.4,1.7-5.5,3-8.2c2.2-1.8,3.3-4.6,4.6-6.8
			c1.4-1.6,3.3-2.8,2.6-5.5c-0.3-2.6-1.2-3.9-3-5.7c0.4-1.7,1.7-3.2,2.1-5.1c1-1.9,1.7-3.6,2.5-5.5c0.7-1.5,1.6-3.4,0.5-5.1
			c-0.6-0.7-1.4-2.3-0.5-3.3c1.5-1.3,1.5-3.8,3.4-5.1c1.3-0.7,3,0.7,1.3,1.9c-1,0.8-0.4,3.9,0.8,2.3c1.1-0.7,4.1,0.3,3.3-2
			c-0.2-2.5-0.8-3.4-0.4-4.3c0.4-0.7,1.6-1.5,2.7-3c2-0.9,0.7,2.6,2.1,1.3c1.4-0.4,3.1,0.1,4.2-1.2c0.5-0.9,1.7-1.9,2.1-3.4
			c1.1-1.4,2.9-3,4.4-1.6c1.7-0.9,4-0.7,5.3,0.3c1,0.1,4.3,1.8,5.4,1.7c1-0.1,3.1-1,0.6-2c-2.2-0.5-3.7-2.2-6.7-2
			c-2.4-0.5-5.4-0.7-7.6,0.5c-1.7,0.3-0.9-2.2-0.1-2.5c-0.2-1.4-0.8-2.9-0.5-4.3c2.5,0.3,4.6-0.9,7-1c2.1-0.2,3.2-2.5,4.7-3.9
			c0.7-1.3,1.7-2.7,2.2-4.1c1-2.2,3.9-0.8,5.1,0.1c0.7,0.1,2.4,1.1,2-0.6c0.6-1.1,1.9-1.9,2.5-3.2c0.5-0.8,1.9-2.4-0.2-2.2
			C190.6,535,190.9,534.4,190.8,533.9L190.8,533.9L190.8,533.9z"/>
	</g>
</g>
<circle class="st14" cx="398.2" cy="268.1" r="3.5"/>
<circle class="st15" cx="313.2" cy="268.1" r="3.5"/>
<circle class="st16" cx="488.3" cy="268.1" r="3.5"/>
</svg>
